<svg width="65" height="65" viewBox="0 0 65 65" fill="none" xmlns="http://www.w3.org/2000/svg">
<path d="M7.16667 64.5C5.19583 64.5 3.50868 63.7983 2.10521 62.3948C0.701736 60.9913 0 59.3042 0 57.3333V7.16667C0 5.19583 0.701736 3.50868 2.10521 2.10521C3.50868 0.701736 5.19583 0 7.16667 0H57.3333C59.3042 0 60.9913 0.701736 62.3948 2.10521C63.7983 3.50868 64.5 5.19583 64.5 7.16667V57.3333C64.5 59.3042 63.7983 60.9913 62.3948 62.3948C60.9913 63.7983 59.3042 64.5 57.3333 64.5H7.16667ZM10.75 50.1667H53.75L40.3125 32.25L29.5625 46.5833L21.5 35.8333L10.75 50.1667Z" fill="#79747E"/>
</svg>
