<svg width="179" height="179" viewBox="0 0 179 179" fill="none" xmlns="http://www.w3.org/2000/svg">
<mask id="mask0_36_379" style="mask-type:alpha" maskUnits="userSpaceOnUse" x="0" y="0" width="179" height="179">
<rect x="99.5265" y="85.3084" width="7.44456" height="7.44456" rx="3.72228" fill="black"/>
<rect x="92.4174" y="97.6216" width="7.44456" height="7.44456" rx="3.72228" fill="black"/>
<rect x="78.1993" y="97.6216" width="7.44456" height="7.44456" rx="3.72228" fill="black"/>
<rect x="71.0902" y="85.3084" width="7.44456" height="7.44456" rx="3.72228" fill="black"/>
<rect x="78.1993" y="72.9952" width="7.44456" height="7.44456" rx="3.72228" fill="black"/>
<rect x="92.4174" y="72.9952" width="7.44456" height="7.44456" rx="3.72228" fill="black"/>
<rect x="113.745" y="85.3084" width="7.44456" height="7.44456" rx="3.72228" fill="black"/>
<rect x="109.935" y="99.5264" width="7.44456" height="7.44456" rx="3.72228" fill="black"/>
<rect x="99.5265" y="109.935" width="7.44456" height="7.44456" rx="3.72228" fill="black"/>
<rect x="85.3083" y="113.745" width="7.44456" height="7.44456" rx="3.72228" fill="black"/>
<rect x="71.0902" y="109.935" width="7.44456" height="7.44456" rx="3.72228" fill="black"/>
<rect x="60.682" y="99.5264" width="7.44456" height="7.44456" rx="3.72228" fill="black"/>
<rect x="56.8722" y="85.3084" width="7.44456" height="7.44456" rx="3.72228" fill="black"/>
<rect x="60.682" y="71.0903" width="7.44456" height="7.44456" rx="3.72228" fill="black"/>
<rect x="71.0902" y="60.682" width="7.44456" height="7.44456" rx="3.72228" fill="black"/>
<rect x="85.3083" y="56.8723" width="7.44456" height="7.44456" rx="3.72228" fill="black"/>
<rect x="99.5265" y="60.682" width="7.44456" height="7.44456" rx="3.72228" fill="black"/>
<rect x="109.935" y="71.0903" width="7.44456" height="7.44456" rx="3.72228" fill="black"/>
<rect x="127.963" y="85.3084" width="7.44456" height="7.44456" rx="3.72228" fill="black"/>
<rect x="125.39" y="99.897" width="7.44456" height="7.44456" rx="3.72228" fill="black"/>
<rect x="117.983" y="112.726" width="7.44456" height="7.44456" rx="3.72228" fill="black"/>
<rect x="106.635" y="122.248" width="7.44456" height="7.44456" rx="3.72228" fill="black"/>
<rect x="92.7152" y="127.315" width="7.44456" height="7.44456" rx="3.72228" fill="black"/>
<rect x="77.9015" y="127.315" width="7.44456" height="7.44456" rx="3.72228" fill="black"/>
<rect x="63.9813" y="122.248" width="7.44456" height="7.44456" rx="3.72228" fill="black"/>
<rect x="52.6334" y="112.726" width="7.44456" height="7.44456" rx="3.72228" fill="black"/>
<rect x="45.2266" y="99.897" width="7.44456" height="7.44456" rx="3.72228" fill="black"/>
<rect x="42.6542" y="85.3084" width="7.44456" height="7.44456" rx="3.72228" fill="black"/>
<rect x="45.2266" y="70.7198" width="7.44456" height="7.44456" rx="3.72228" fill="black"/>
<rect x="52.6334" y="57.8908" width="7.44456" height="7.44456" rx="3.72228" fill="black"/>
<rect x="63.9813" y="48.3688" width="7.44456" height="7.44456" rx="3.72228" fill="black"/>
<rect x="77.9015" y="43.3022" width="7.44456" height="7.44456" rx="3.72228" fill="black"/>
<rect x="92.7152" y="43.3022" width="7.44456" height="7.44456" rx="3.72228" fill="black"/>
<rect x="106.635" y="48.3688" width="7.44456" height="7.44456" rx="3.72228" fill="black"/>
<rect x="117.983" y="57.8908" width="7.44456" height="7.44456" rx="3.72228" fill="black"/>
<rect x="125.39" y="70.7198" width="7.44456" height="7.44456" rx="3.72228" fill="black"/>
<rect x="142.181" y="85.3084" width="7.44456" height="7.44456" rx="3.72228" fill="black"/>
<rect x="140.243" y="100.028" width="7.44456" height="7.44456" rx="3.72228" fill="black"/>
<rect x="134.561" y="113.745" width="7.44456" height="7.44456" rx="3.72228" fill="black"/>
<rect x="125.523" y="125.523" width="7.44456" height="7.44456" rx="3.72228" fill="black"/>
<rect x="113.745" y="134.561" width="7.44456" height="7.44456" rx="3.72228" fill="black"/>
<rect x="100.028" y="140.243" width="7.44456" height="7.44456" rx="3.72228" fill="black"/>
<rect x="85.3083" y="142.181" width="7.44456" height="7.44456" rx="3.72228" fill="black"/>
<rect x="70.5887" y="140.243" width="7.44456" height="7.44456" rx="3.72228" fill="black"/>
<rect x="56.8722" y="134.561" width="7.44456" height="7.44456" rx="3.72228" fill="black"/>
<rect x="45.0935" y="125.523" width="7.44456" height="7.44456" rx="3.72228" fill="black"/>
<rect x="36.0555" y="113.745" width="7.44456" height="7.44456" rx="3.72228" fill="black"/>
<rect x="30.374" y="100.028" width="7.44456" height="7.44456" rx="3.72228" fill="black"/>
<rect x="28.4362" y="85.3084" width="7.44456" height="7.44456" rx="3.72228" fill="black"/>
<rect x="30.374" y="70.5888" width="7.44456" height="7.44456" rx="3.72228" fill="black"/>
<rect x="36.0555" y="56.8723" width="7.44456" height="7.44456" rx="3.72228" fill="black"/>
<rect x="45.0935" y="45.0936" width="7.44456" height="7.44456" rx="3.72228" fill="black"/>
<rect x="56.8722" y="36.0556" width="7.44456" height="7.44456" rx="3.72228" fill="black"/>
<rect x="70.5887" y="30.374" width="7.44456" height="7.44456" rx="3.72228" fill="black"/>
<rect x="85.3083" y="28.4361" width="7.44456" height="7.44456" rx="3.72228" fill="black"/>
<rect x="100.028" y="30.374" width="7.44456" height="7.44456" rx="3.72228" fill="black"/>
<rect x="113.745" y="36.0556" width="7.44456" height="7.44456" rx="3.72228" fill="black"/>
<rect x="125.523" y="45.0936" width="7.44456" height="7.44456" rx="3.72228" fill="black"/>
<rect x="134.561" y="56.8723" width="7.44456" height="7.44456" rx="3.72228" fill="black"/>
<rect x="140.243" y="70.5888" width="7.44456" height="7.44456" rx="3.72228" fill="black"/>
<rect x="156.399" y="85.3084" width="7.44456" height="7.44456" rx="3.72228" fill="black"/>
<rect x="154.845" y="100.089" width="7.44456" height="7.44456" rx="3.72228" fill="black"/>
<rect x="150.253" y="114.223" width="7.44456" height="7.44456" rx="3.72228" fill="black"/>
<rect x="142.822" y="127.094" width="7.44456" height="7.44456" rx="3.72228" fill="black"/>
<rect x="132.877" y="138.139" width="7.44456" height="7.44456" rx="3.72228" fill="black"/>
<rect x="120.854" y="146.874" width="7.44456" height="7.44456" rx="3.72228" fill="black"/>
<rect x="107.276" y="152.919" width="7.44456" height="7.44456" rx="3.72228" fill="black"/>
<rect x="92.7394" y="156.009" width="7.44456" height="7.44456" rx="3.72228" fill="black"/>
<rect x="77.8774" y="156.009" width="7.44456" height="7.44456" rx="3.72228" fill="black"/>
<rect x="63.3402" y="152.919" width="7.44456" height="7.44456" rx="3.72228" fill="black"/>
<rect x="49.7632" y="146.874" width="7.44456" height="7.44456" rx="3.72228" fill="black"/>
<rect x="37.7396" y="138.139" width="7.44456" height="7.44456" rx="3.72228" fill="black"/>
<rect x="27.7952" y="127.094" width="7.44456" height="7.44456" rx="3.72228" fill="black"/>
<rect x="20.3641" y="114.223" width="7.44456" height="7.44456" rx="3.72228" fill="black"/>
<rect x="15.7715" y="100.089" width="7.44456" height="7.44456" rx="3.72228" fill="black"/>
<rect x="14.218" y="85.3084" width="7.44456" height="7.44456" rx="3.72228" fill="black"/>
<rect x="15.7715" y="70.5279" width="7.44456" height="7.44456" rx="3.72228" fill="black"/>
<rect x="20.3641" y="56.3933" width="7.44456" height="7.44456" rx="3.72228" fill="black"/>
<rect x="27.7952" y="43.5225" width="7.44456" height="7.44456" rx="3.72228" fill="black"/>
<rect x="37.7396" y="32.478" width="7.44456" height="7.44456" rx="3.72228" fill="black"/>
<rect x="49.7632" y="23.7424" width="7.44456" height="7.44456" rx="3.72228" fill="black"/>
<rect x="63.3402" y="17.6975" width="7.44456" height="7.44456" rx="3.72228" fill="black"/>
<rect x="77.8774" y="14.6075" width="7.44456" height="7.44456" rx="3.72228" fill="black"/>
<rect x="92.7394" y="14.6075" width="7.44456" height="7.44456" rx="3.72228" fill="black"/>
<rect x="107.276" y="17.6975" width="7.44456" height="7.44456" rx="3.72228" fill="black"/>
<rect x="120.854" y="23.7424" width="7.44456" height="7.44456" rx="3.72228" fill="black"/>
<rect x="132.877" y="32.478" width="7.44456" height="7.44456" rx="3.72228" fill="black"/>
<rect x="142.822" y="43.5225" width="7.44456" height="7.44456" rx="3.72228" fill="black"/>
<rect x="150.253" y="56.3933" width="7.44456" height="7.44456" rx="3.72228" fill="black"/>
<rect x="154.845" y="70.5279" width="7.44456" height="7.44456" rx="3.72228" fill="black"/>
<rect x="170.617" y="85.3084" width="7.44456" height="7.44456" rx="3.72228" fill="black"/>
<rect x="169.321" y="100.122" width="7.44456" height="7.44456" rx="3.72228" fill="black"/>
<rect x="165.472" y="114.486" width="7.44456" height="7.44456" rx="3.72228" fill="black"/>
<rect x="159.188" y="127.963" width="7.44456" height="7.44456" rx="3.72228" fill="black"/>
<rect x="150.658" y="140.144" width="7.44456" height="7.44456" rx="3.72228" fill="black"/>
<rect x="140.144" y="150.658" width="7.44456" height="7.44456" rx="3.72228" fill="black"/>
<rect x="127.963" y="159.188" width="7.44456" height="7.44456" rx="3.72228" fill="black"/>
<rect x="114.486" y="165.472" width="7.44456" height="7.44456" rx="3.72228" fill="black"/>
<rect x="100.122" y="169.321" width="7.44456" height="7.44456" rx="3.72228" fill="black"/>
<rect x="85.3083" y="170.617" width="7.44456" height="7.44456" rx="3.72228" fill="black"/>
<rect x="70.4948" y="169.321" width="7.44456" height="7.44456" rx="3.72228" fill="black"/>
<rect x="56.1312" y="165.472" width="7.44456" height="7.44456" rx="3.72228" fill="black"/>
<rect x="42.6542" y="159.188" width="7.44456" height="7.44456" rx="3.72228" fill="black"/>
<rect x="30.4733" y="150.658" width="7.44456" height="7.44456" rx="3.72228" fill="black"/>
<rect x="19.9584" y="140.144" width="7.44456" height="7.44456" rx="3.72228" fill="black"/>
<rect x="11.4292" y="127.963" width="7.44456" height="7.44456" rx="3.72228" fill="black"/>
<rect x="5.14478" y="114.486" width="7.44456" height="7.44456" rx="3.72228" fill="black"/>
<rect x="1.29602" y="100.122" width="7.44456" height="7.44456" rx="3.72228" fill="black"/>
<rect y="85.3084" width="7.44456" height="7.44456" rx="3.72228" fill="black"/>
<rect x="1.29602" y="70.4948" width="7.44456" height="7.44456" rx="3.72228" fill="black"/>
<rect x="5.14478" y="56.1312" width="7.44456" height="7.44456" rx="3.72228" fill="black"/>
<rect x="11.4292" y="42.6542" width="7.44456" height="7.44456" rx="3.72228" fill="black"/>
<rect x="19.9584" y="30.4732" width="7.44456" height="7.44456" rx="3.72228" fill="black"/>
<rect x="30.4733" y="19.9584" width="7.44456" height="7.44456" rx="3.72228" fill="black"/>
<rect x="42.6542" y="11.4292" width="7.44456" height="7.44456" rx="3.72228" fill="black"/>
<rect x="56.1312" y="5.14472" width="7.44456" height="7.44456" rx="3.72228" fill="black"/>
<rect x="70.4948" y="1.29603" width="7.44456" height="7.44456" rx="3.72228" fill="black"/>
<rect x="85.3083" width="7.44456" height="7.44456" rx="3.72228" fill="black"/>
<rect x="100.122" y="1.29603" width="7.44456" height="7.44456" rx="3.72228" fill="black"/>
<rect x="114.486" y="5.14472" width="7.44456" height="7.44456" rx="3.72228" fill="black"/>
<rect x="127.963" y="11.4292" width="7.44456" height="7.44456" rx="3.72228" fill="black"/>
<rect x="140.144" y="19.9584" width="7.44456" height="7.44456" rx="3.72228" fill="black"/>
<rect x="150.658" y="30.4732" width="7.44456" height="7.44456" rx="3.72228" fill="black"/>
<rect x="159.188" y="42.6542" width="7.44456" height="7.44456" rx="3.72228" fill="black"/>
<rect x="165.472" y="56.1312" width="7.44456" height="7.44456" rx="3.72228" fill="black"/>
<rect x="169.321" y="70.4948" width="7.44456" height="7.44456" rx="3.72228" fill="black"/>
<rect x="85.3083" y="85.3084" width="7.44456" height="7.44456" rx="3.72228" fill="black"/>
</mask>
<g mask="url(#mask0_36_379)">
<circle cx="85.5" cy="92.5" r="103.5" fill="url(#paint0_linear_36_379)"/>
</g>
<defs>
<linearGradient id="paint0_linear_36_379" x1="85.5" y1="-11" x2="85.5" y2="196" gradientUnits="userSpaceOnUse">
<stop stop-color="#F21C1C"/>
<stop offset="1" stop-color="#E40BE0"/>
</linearGradient>
</defs>
</svg>
